<svg width="1200" height="1200" viewBox="0 0 1200 1200" fill="none" xmlns="http://www.w3.org/2000/svg">
<g id="Email with hook">
<rect width="1200" height="1200" fill="white"/>
<g id="fi_6070828">
<path id="Vector" d="M111.867 1064.6L414.405 774.351L111.867 484.068V1064.6Z" fill="black"/>
<path id="Vector_2" d="M1088.13 1064.6V484.068L785.595 774.351L1088.13 1064.6Z" fill="black"/>
<path id="Vector_3" d="M692.885 281.075C696.305 282.262 699.27 284.485 701.369 287.434C703.469 290.383 704.598 293.912 704.6 297.532V425.667H739.467V297.532C739.469 293.912 740.599 290.383 742.698 287.434C744.797 284.485 747.762 282.262 751.182 281.075C770.553 274.202 786.871 260.705 797.256 242.967C807.641 225.23 811.424 204.394 807.937 184.138C804.449 163.882 793.917 145.51 778.198 132.266C762.48 119.023 742.587 111.76 722.034 111.76C701.48 111.76 681.587 119.023 665.869 132.266C650.151 145.51 639.618 163.882 636.131 184.138C632.643 204.394 636.426 225.23 646.811 242.967C657.196 260.705 673.514 274.202 692.885 281.075ZM722.034 146.734C732.378 146.734 742.489 149.801 751.09 155.548C759.691 161.295 766.394 169.463 770.352 179.019C774.311 188.576 775.347 199.092 773.329 209.237C771.311 219.382 766.329 228.701 759.015 236.015C751.701 243.33 742.382 248.311 732.237 250.329C722.092 252.347 711.576 251.311 702.019 247.353C692.463 243.394 684.295 236.691 678.548 228.09C672.801 219.489 669.734 209.378 669.734 199.034C669.734 185.163 675.244 171.86 685.052 162.052C694.86 152.244 708.163 146.734 722.034 146.734Z" fill="black"/>
<path id="Vector_4" d="M137.703 460.533L586.262 890.927C589.972 894.465 594.9 896.438 600.026 896.438C605.151 896.438 610.08 894.465 613.79 890.927L1062.3 460.533H530.266C530.25 471.718 532.928 482.742 538.075 492.673C543.221 502.604 550.684 511.148 559.832 517.584C568.98 524.02 579.544 528.157 590.629 529.645C601.715 531.133 612.996 529.929 623.517 526.135L622.541 525.159C619.365 521.871 617.608 517.467 617.648 512.896C617.688 508.325 619.521 503.952 622.753 500.72C625.986 497.488 630.358 495.654 634.929 495.615C639.5 495.575 643.904 497.332 647.192 500.508L734.359 587.674C736.024 589.283 737.352 591.206 738.265 593.333C739.179 595.46 739.66 597.748 739.68 600.063C739.7 602.377 739.259 604.673 738.383 606.815C737.506 608.958 736.211 610.904 734.575 612.541C732.938 614.178 730.991 615.473 728.849 616.349C726.706 617.226 724.411 617.667 722.096 617.647C719.781 617.627 717.494 617.146 715.367 616.232C713.24 615.318 711.316 613.99 709.708 612.325L700.364 602.981C674.271 621.398 643.617 632.288 611.754 634.462C579.89 636.636 548.042 630.009 519.689 615.307C491.337 600.604 467.571 578.391 450.989 551.095C434.407 523.8 425.647 492.471 425.666 460.533H137.703Z" fill="black"/>
<path id="Vector_5" d="M637.882 916.101C627.681 925.833 614.124 931.262 600.026 931.262C585.928 931.262 572.371 925.833 562.169 916.101L439.613 798.531L137.703 1088.13H1062.3L760.387 798.514L637.882 916.101Z" fill="black"/>
<path id="Vector_6" d="M460.533 373.367V460.533C460.499 485.57 467.214 510.153 479.972 531.695C492.73 553.237 511.059 570.942 533.03 582.947C555.001 594.951 579.802 600.811 604.822 599.909C629.842 599.008 654.157 591.379 675.207 577.825L649.842 552.459C634.558 560.808 617.415 565.167 600 565.133C572.267 565.106 545.678 554.077 526.067 534.466C506.457 514.856 495.428 488.267 495.4 460.533V322.984L492.977 321.816L445.087 356.038C449.341 356.526 453.265 358.562 456.114 361.758C458.962 364.954 460.536 369.086 460.533 373.367Z" fill="black"/>
</g>
</g>
</svg>
