<svg width="1200" height="1200" viewBox="0 0 1200 1200" fill="none" xmlns="http://www.w3.org/2000/svg">
<g id="Using mobile while working">
<rect width="1200" height="1200" fill="white"/>
<g id="fi_9922618" clip-path="url(#clip0_309_101)">
<g id="Group">
<path id="Vector" d="M403.941 268.234L376.273 235.312C374.022 232.634 369.99 232.284 367.311 234.535L337.327 259.733C334.648 261.984 334.298 266.017 336.549 268.695L394.355 337.48C396.606 340.158 400.639 340.508 403.318 338.257L411.061 331.749C408.267 323.086 404.921 315.628 400.952 310.132C391.537 297.096 393.149 279.422 403.941 268.234ZM345.11 268.685L343.064 266.25L363.456 249.113L365.502 251.548L345.11 268.685ZM372.995 248.107C371.231 249.59 368.597 249.361 367.114 247.597C365.631 245.832 365.859 243.198 367.624 241.715C369.389 240.232 372.022 240.46 373.506 242.225C374.989 243.99 374.76 246.624 372.995 248.107Z" fill="black"/>
<path id="Vector_2" d="M370.225 892.427V825.469H383.742V819.842C388.928 819.499 393.962 819.029 398.833 818.454V744.168L363.862 761.232C361.689 762.293 359.453 763.115 357.19 763.828C350.839 766.868 343.861 768.519 336.644 768.519C323.537 768.519 311.322 763.317 302.246 753.875C299.085 750.586 296.474 746.916 294.404 742.989C263.986 695.016 203.838 600.742 186.95 574.276L153.637 589.809L254.122 784.512C255.535 787.251 257.178 789.739 258.98 791.947C264.589 805.834 297.81 817.006 340.806 819.842V825.47H354.323V892.428L261.294 921.052V932.771C255.333 935.709 251.221 941.828 251.221 948.925C251.221 958.879 259.29 966.949 269.245 966.949C279.2 966.949 287.266 958.879 287.266 948.925C287.266 941.843 283.172 935.734 277.233 932.786L354.323 909.066V932.771C348.363 935.709 344.25 941.828 344.25 948.925C344.25 958.879 352.32 966.949 362.274 966.949C372.229 966.949 380.295 958.879 380.295 948.925C380.295 941.831 376.186 935.709 370.225 932.771V909.066L398.833 917.869V901.23L370.225 892.427Z" fill="black"/>
<path id="Vector_3" d="M447.314 932.786C443.347 934.754 440.239 938.15 438.588 942.286V955.647C441.254 962.268 447.727 966.948 455.303 966.948C465.257 966.948 473.323 958.879 473.323 948.925C473.323 941.831 469.214 935.709 463.254 932.771V921.052L438.588 913.462V930.101L447.314 932.786Z" fill="black"/>
<path id="Vector_4" d="M674.161 657.099H684.064C683.031 655.304 682.395 653.253 682.395 651.038C682.395 644.284 687.889 638.791 694.641 638.791H740.411C737.949 622.944 725.611 609.751 708.925 606.997L667.117 600.1C672.223 605.36 676.1 611.749 678.366 618.946C682.192 631.1 681.055 644.017 675.166 655.32C674.85 655.927 674.5 656.509 674.161 657.099Z" fill="black"/>
<path id="Vector_5" d="M694.64 646.105C691.927 646.105 689.708 648.325 689.708 651.037C689.708 653.75 691.927 655.97 694.64 655.97H810.833H952.015H993.173C996.075 655.97 998.568 653.908 999.113 651.058L1026.7 506.895C1027.41 503.167 1024.56 499.71 1020.76 499.71H838.42C835.518 499.71 833.025 501.771 832.479 504.622L805.405 646.105H694.64ZM917.024 549.167C917.769 544.938 921.802 541.51 926.03 541.51C930.259 541.51 933.082 544.938 932.337 549.167C931.591 553.395 927.559 556.823 923.33 556.823C919.101 556.823 916.278 553.395 917.024 549.167Z" fill="black"/>
<path id="Vector_6" d="M367.822 666.64V682.542H391.146V710.636H408.373V966.013H429.047V875.508H641.583V875.43V844.789H654.752V829.468H818.483V860.11V861.855V875.508H850.27V874.908V846.013V844.266V813.626H863.439V798.305H1027.17V828.946V830.692V859.587V861.333V875.508H1061.78V966.013H1082.45V710.636H1099.68V682.542H1123V666.64H367.822Z" fill="black"/>
<path id="Vector_7" d="M291.285 494.81C281.883 500.418 271.66 504.016 260.895 505.506C243.995 507.845 227.292 504.763 212.784 497.329C209.883 497.568 206.976 498.26 204.182 499.561L164.306 518.156L187.693 477.345C184.914 474.034 182.354 470.494 180.089 466.696C170.315 450.309 166.687 431.434 169.588 412.816C166.084 414.972 163.05 418.001 160.86 421.821L80.6402 561.811C75.7813 570.29 75.6586 580.924 81.046 589.078C86.672 597.591 96.4071 601.636 105.825 600.333C108.292 599.991 110.74 599.282 113.088 598.188L190.493 562.093C190.493 562.093 266.851 681.715 302.629 738.142C302.641 738.16 302.654 738.174 302.666 738.193C304.326 741.436 306.469 744.499 309.125 747.261C316.616 755.057 326.62 758.977 336.643 758.977C342.554 758.977 348.469 757.607 353.878 754.866C355.835 754.277 357.779 753.583 359.677 752.656L398.831 733.55V720.177H381.603V692.084H358.28V657.098H575.345L508.159 622.092L481.799 647.433L475.514 640.241L506.488 610.463L595.993 657.098H662.665C664.178 655.201 665.542 653.142 666.706 650.908C676.446 632.217 669.19 609.165 650.496 599.427L517.44 530.099C502.91 522.521 485.169 525.068 473.354 536.432L413.35 594.119L356.1 502.773L365.131 499.215L464.847 459.932C474.243 456.229 480.56 447.319 480.945 437.227C481.206 430.386 482.295 390.712 475.05 349.467C470.375 322.85 462.237 295.58 448.134 276.054C439.906 264.661 424.007 262.102 412.608 270.323C401.218 278.551 398.653 294.456 406.881 305.849C415.679 318.029 421.52 338.441 425.178 360.433C428.472 380.232 430 401.309 430.25 418.865L326.624 459.689L322.311 461.388C315.461 475.172 304.821 486.739 291.285 494.81Z" fill="black"/>
<path id="Vector_8" d="M311.206 388.501C290.962 354.556 247.039 343.449 213.091 363.694C179.148 383.936 168.04 427.864 188.283 461.809C208.527 495.754 252.456 506.859 286.399 486.616C320.346 466.371 331.45 422.446 311.206 388.501ZM275.659 381.986C281.052 381.986 285.424 386.358 285.424 391.751C285.424 397.144 281.052 401.515 275.659 401.515C270.266 401.515 265.894 397.144 265.894 391.751C265.894 386.358 270.266 381.986 275.659 381.986ZM234.276 408.676C239.668 408.676 244.04 413.048 244.04 418.441C244.04 423.834 239.668 428.205 234.276 428.205C228.883 428.205 224.511 423.834 224.511 418.441C224.511 413.048 228.882 408.676 234.276 408.676Z" fill="black"/>
<path id="Vector_9" d="M667.474 842.19H805.761V849.133H667.474V842.19Z" fill="black"/>
<path id="Vector_10" d="M654.303 888.152H792.59V895.095H654.303V888.152Z" fill="black"/>
<path id="Vector_11" d="M667.474 872.831H805.761V879.774H667.474V872.831Z" fill="black"/>
<path id="Vector_12" d="M654.303 857.511H792.59V864.454H654.303V857.511Z" fill="black"/>
<path id="Vector_13" d="M642.452 903.423V938.459V962.881H817.613V923.138V903.423H642.452Z" fill="black"/>
<path id="Vector_14" d="M851.139 907.295V962.881H1026.3V903.423H1014H851.139V907.295Z" fill="black"/>
<path id="Vector_15" d="M876.161 811.028H1014.45V817.971H876.161V811.028Z" fill="black"/>
<path id="Vector_16" d="M862.991 887.63H1001.28V894.573H862.991V887.63Z" fill="black"/>
<path id="Vector_17" d="M876.161 872.31H1014.45V879.253H876.161V872.31Z" fill="black"/>
<path id="Vector_18" d="M862.991 856.989H1001.28V863.932H862.991V856.989Z" fill="black"/>
<path id="Vector_19" d="M876.161 841.669H1014.45V848.612H876.161V841.669Z" fill="black"/>
<path id="Vector_20" d="M862.991 826.349H1001.28V833.292H862.991V826.349Z" fill="black"/>
</g>
</g>
</g>
<defs>
<clipPath id="clip0_309_101">
<rect width="1046" height="1046" fill="white" transform="translate(77 77)"/>
</clipPath>
</defs>
</svg>
