<svg width="1200" height="1200" viewBox="0 0 1200 1200" fill="none" xmlns="http://www.w3.org/2000/svg">
<g id="Stealing data from server">
<rect width="1200" height="1200" fill="white"/>
<g id="fi_12211144">
<g id="Artboard221">
<path id="Vector" fill-rule="evenodd" clip-rule="evenodd" d="M658.913 422.774C658.529 422.391 658.152 422.003 657.783 421.611C649.086 412.378 644.306 400.802 643.44 388.993C642.349 374.076 647.505 358.786 658.913 347.38L735.742 270.548C686.843 224.422 629.424 216.661 629.424 216.661C629.448 216.665 629.473 216.667 629.498 216.667L629.163 215.683C629.163 215.683 629.221 215.638 629.309 215.572C632.268 213.293 672.662 176.774 725.081 147.131C760.081 127.339 800.439 110.617 838.609 109.151C935.709 105.416 1088.82 109.149 1088.82 109.149C1089.03 109.155 1089.22 109.278 1089.31 109.467C1089.4 109.655 1089.37 109.879 1089.24 110.041C1089.24 110.041 1078.1 123.971 1071.83 143.704C1065.58 163.391 1064.17 188.87 1083.63 212.032C1099.43 230.848 1103.48 247.563 1102.67 260.841C1101.44 280.824 1089.2 293.054 1089.2 293.054C1089.1 293.154 1088.96 293.212 1088.82 293.214L999.503 295.074C997.848 297.72 983.431 320.553 969.083 336.414C962.48 343.711 955.876 349.526 950.529 351.308C947.719 352.243 942.377 352.68 935.364 352.729C919.172 352.844 894 350.943 870.775 348.763C842.562 346.115 817.226 343.057 814.377 342.712L734.311 422.778C713.491 443.598 679.736 443.598 658.917 422.778C659.019 422.881 659.159 422.938 659.304 422.938L658.913 422.774ZM311.758 612.133V559.528C312.984 560.27 314.239 561.004 315.523 561.732C370.721 593.063 481.831 615.123 610.03 615.123C738.228 615.123 849.291 593.061 904.464 561.732C905.738 561.008 906.985 560.276 908.203 559.538V722.667C899.552 727.909 889.014 732.837 876.885 737.483C816.736 760.517 719.599 775.221 610.032 775.221C582.436 775.221 555.625 774.288 529.994 772.526C496.908 680.907 411.917 615.132 311.758 612.133ZM580.128 711.581H639.835C648.89 711.581 656.242 704.228 656.242 695.173C656.242 686.118 648.89 678.765 639.835 678.765H580.128C571.071 678.765 563.721 686.118 563.721 695.173C563.721 704.228 571.071 711.581 580.128 711.581ZM539.478 805.969C562.256 807.323 585.855 808.037 610.032 808.037C736.903 808.037 847.746 788.37 908.203 759.779V889.598C908.203 942.009 774.732 984.542 610.026 984.542C576.123 984.542 543.541 982.739 513.172 979.421C533.28 943.535 544.792 901.933 544.792 857.596C544.792 839.88 542.958 822.609 539.478 805.969ZM580.128 904.494H639.835C648.89 904.494 656.242 897.141 656.242 888.086C656.242 879.029 648.89 871.679 639.835 871.679H580.128C571.071 871.679 563.721 879.029 563.721 888.086C563.721 897.141 571.071 904.494 580.128 904.494ZM611.143 389.485C610.772 389.485 610.401 389.485 610.03 389.485C506.41 389.485 414.508 374.804 357.595 351.798C340.233 344.78 326.33 337.115 316.863 328.692C314.961 327 313.241 325.32 311.758 323.626V310.949C311.758 258.634 444.838 216.159 609.133 216.007C609.037 216.081 608.988 216.118 608.988 216.118C608.988 216.118 609.55 216.175 610.61 216.304L608.988 248.933C607.958 248.933 606.929 248.886 605.901 248.788C608.846 249.083 649.532 253.458 686.392 274.269L636.096 324.563C618.264 342.396 609.944 366.139 611.143 389.485ZM908.203 384.078V518.588C907.217 519.579 906.156 520.567 905.032 521.562C895.506 529.987 881.514 537.65 864.039 544.666C806.786 567.653 714.32 582.308 610.03 582.308C505.735 582.308 413.236 567.654 355.954 544.664C338.47 537.648 324.47 529.983 314.937 521.558C313.811 520.563 312.746 519.572 311.758 518.58V365.527C313.526 366.639 315.355 367.734 317.244 368.815C372.122 400.181 482.58 422.301 610.03 422.301C613.198 422.301 616.359 422.286 619.507 422.26C623.217 429.955 628.148 437.209 634.295 443.735C634.883 444.361 635.484 444.98 636.096 445.591L659.304 455.206C650.6 455.206 642.255 451.748 636.1 445.596C669.52 479.016 723.707 479.016 757.128 445.596L798.328 404.393C828.205 398.109 854.461 390.4 875.978 381.64C886.902 382.608 897.973 383.469 908.203 384.078ZM580.128 518.756H639.835C648.89 518.756 656.242 511.405 656.242 502.348C656.242 493.293 648.89 485.94 639.835 485.94H580.128C571.071 485.94 563.721 493.293 563.721 502.348C563.721 511.405 571.071 518.756 580.128 518.756ZM221.398 1091.42C219.203 1092.13 216.873 1092.51 214.463 1092.51H194.345C181.543 1092.51 171.005 1081.79 171.005 1068.56V1020.22C125.89 981.262 97.2354 922.824 97.2354 857.596C97.2354 740.094 190.077 644.842 304.606 644.842C419.135 644.842 511.976 740.094 511.976 857.596C511.976 922.824 483.322 981.262 438.207 1020.22V1068.56C438.207 1081.79 427.669 1092.51 414.867 1092.51H394.749C392.339 1092.51 390.009 1092.13 387.814 1091.42V1052.7C387.814 1043.64 380.461 1036.29 371.406 1036.29C362.351 1036.29 354.998 1043.64 354.998 1052.7V1091.42C352.804 1092.13 350.476 1092.51 348.066 1092.51H327.946C325.536 1092.51 323.208 1092.13 321.014 1091.42V1052.7C321.014 1043.64 313.661 1036.29 304.606 1036.29C295.551 1036.29 288.198 1043.64 288.198 1052.7V1091.42C286.003 1092.13 283.674 1092.51 281.264 1092.51H261.146C258.736 1092.51 256.408 1092.13 254.213 1091.42V1052.7C254.213 1043.64 246.861 1036.29 237.805 1036.29C228.748 1036.29 221.398 1043.64 221.398 1052.7V1091.42ZM156.982 829.806C150.799 853.665 171.875 880.202 204.186 889.139C236.585 897.984 267.764 885.832 274.036 861.973C280.22 838.116 259.144 811.579 226.831 802.731C194.431 793.885 163.252 805.949 156.982 829.806ZM452.229 829.806C445.959 805.949 414.778 793.885 382.381 802.731C350.068 811.579 328.992 838.116 335.176 861.973C341.446 885.832 372.627 897.984 405.024 889.139C437.337 880.202 458.413 853.665 452.229 829.806ZM337.616 971.003L315.843 950.541C309.526 944.607 299.686 944.607 293.369 950.541L271.595 971.003C264.997 977.206 264.673 987.598 270.875 994.196C277.078 1000.8 287.47 1001.12 294.068 994.916L304.606 985.014L315.142 994.916C321.742 1001.12 332.134 1000.8 338.336 994.196C344.536 987.598 344.214 977.206 337.616 971.003Z" fill="black"/>
</g>
</g>
</g>
</svg>
